<svg xmlns="http://www.w3.org/2000/svg" xmlns:xlink="http://www.w3.org/1999/xlink" width="1920" zoomAndPan="magnify" viewBox="0 0 1440 386.999991" height="516" preserveAspectRatio="xMidYMid meet" version="1.0"><defs><clipPath id="b1104640a1"><path d="M 16.148438 149.800781 L 1440 149.800781 L 1440 387 L 16.148438 387 Z M 16.148438 149.800781 " clip-rule="nonzero"/></clipPath><clipPath id="e431f3dc43"><path d="M 0 263.097656 L 289.179688 263.097656 L 289.179688 387 L 0 387 Z M 0 263.097656 " clip-rule="nonzero"/></clipPath><clipPath id="8c0f59c330"><path d="M 142.128906 385.519531 L 1440 385.519531 L 1440 387 L 142.128906 387 Z M 142.128906 385.519531 " clip-rule="nonzero"/></clipPath><clipPath id="759611278d"><path d="M 90.160156 216.496094 L 320.410156 216.496094 L 320.410156 387 L 90.160156 387 Z M 90.160156 216.496094 " clip-rule="nonzero"/></clipPath><clipPath id="53261ec8f0"><path d="M 205.3125 185.546875 L 435.5625 185.546875 L 435.5625 387 L 205.3125 387 Z M 205.3125 185.546875 " clip-rule="nonzero"/></clipPath><clipPath id="130f1956df"><path d="M 320.464844 196.285156 L 550.714844 196.285156 L 550.714844 387 L 320.464844 387 Z M 320.464844 196.285156 " clip-rule="nonzero"/></clipPath><clipPath id="127e7b3df5"><path d="M 479.714844 268.113281 L 662.714844 268.113281 L 662.714844 387 L 479.714844 387 Z M 479.714844 268.113281 " clip-rule="nonzero"/></clipPath><clipPath id="72be21b9c0"><path d="M 620.445312 311.441406 L 774.195312 311.441406 L 774.195312 387 L 620.445312 387 Z M 620.445312 311.441406 " clip-rule="nonzero"/></clipPath><clipPath id="925d10e36b"><path d="M 1211 261 L 1415 261 L 1415 387 L 1211 387 Z M 1211 261 " clip-rule="nonzero"/></clipPath><clipPath id="08234cb465"><path d="M 1332.246094 196.285156 L 1496.390625 327.269531 L 1375.703125 478.515625 L 1211.554688 347.535156 Z M 1332.246094 196.285156 " clip-rule="nonzero"/></clipPath><clipPath id="886bda6ae5"><path d="M 1211.511719 348.054688 L 1286.511719 348.054688 L 1286.511719 387 L 1211.511719 387 Z M 1211.511719 348.054688 " clip-rule="nonzero"/></clipPath><clipPath id="a605bcf237"><path d="M 1369.871094 254.570312 L 1440 254.570312 L 1440 387 L 1369.871094 387 Z M 1369.871094 254.570312 " clip-rule="nonzero"/></clipPath><clipPath id="e0743d6e8e"><path d="M 1384.976562 185.546875 L 1440 185.546875 L 1440 286.796875 L 1384.976562 286.796875 Z M 1384.976562 185.546875 " clip-rule="nonzero"/></clipPath><clipPath id="b14ae54b41"><path d="M 1422.359375 184.601562 L 1440 184.601562 L 1440 300.851562 L 1422.359375 300.851562 Z M 1422.359375 184.601562 " clip-rule="nonzero"/></clipPath></defs><rect x="-144" width="1728" fill="#ffffff" y="-38.699999" height="464.399989" fill-opacity="1"/><rect x="-144" width="1728" fill="#ffffff" y="-38.699999" height="464.399989" fill-opacity="1"/><rect x="-144" width="1728" fill="#fcf3e4" y="-38.699999" height="464.399989" fill-opacity="1"/><g clip-path="url(#b1104640a1)"><path fill="#eef1f4" d="M 16.160156 337.523438 L 18.582031 335.734375 C 62.824219 294.699219 109.765625 265.3125 159.410156 247.578125 C 228.128906 223.628906 291.824219 212.019531 350.488281 212.753906 C 399.453125 212.738281 441.179688 219.285156 475.667969 232.394531 C 486.117188 236.445312 500.378906 243.238281 518.457031 252.773438 L 721.710938 361.035156 C 740.480469 371.207031 757.171875 379.386719 771.777344 385.566406 C 839.242188 414.53125 898.816406 432.527344 950.496094 439.5625 C 1015.835938 447.265625 1073.371094 444.511719 1123.101562 431.308594 C 1200.367188 407.699219 1260.585938 378.828125 1303.757812 344.6875 C 1380.910156 285.617188 1431.714844 220.699219 1456.171875 149.9375 L 1443.277344 166.921875 C 1415.582031 188.785156 1378.476562 220.875 1331.960938 263.1875 C 1321.574219 272.625 1303.03125 286.148438 1276.34375 303.753906 C 1223.585938 337.277344 1162.222656 361.207031 1092.253906 375.539062 C 1018.199219 383.34375 948.027344 376.675781 881.742188 355.535156 C 843.683594 343.121094 810.714844 330.351562 782.835938 317.230469 L 580.050781 212.566406 C 545.777344 195.160156 524.15625 184.71875 515.183594 181.246094 C 479.652344 167.671875 442.035156 160.1875 402.324219 158.792969 C 315.757812 156.132812 233.578125 172.972656 155.789062 209.320312 C 84.863281 242.4375 38.324219 285.171875 16.160156 337.523438 " fill-opacity="1" fill-rule="nonzero"/></g><g clip-path="url(#e431f3dc43)"><path fill="#eef1f4" d="M 135.429688 263.097656 C 50.515625 263.097656 -18.320312 331.933594 -18.320312 416.847656 C -18.320312 501.761719 50.515625 570.597656 135.429688 570.597656 C 220.34375 570.597656 289.179688 501.761719 289.179688 416.847656 C 289.179688 331.933594 220.34375 263.097656 135.429688 263.097656 " fill-opacity="1" fill-rule="nonzero"/></g><g clip-path="url(#8c0f59c330)"><path fill="#eef1f4" d="M 142.15625 385.519531 L 1443.355469 385.519531 L 1443.355469 494.269531 L 142.15625 494.269531 L 142.15625 385.519531 " fill-opacity="1" fill-rule="nonzero"/></g><g clip-path="url(#759611278d)"><path fill="#eef1f4" d="M 205.285156 216.496094 C 141.703125 216.496094 90.160156 268.039062 90.160156 331.621094 C 90.160156 395.203125 141.703125 446.746094 205.285156 446.746094 C 268.867188 446.746094 320.410156 395.203125 320.410156 331.621094 C 320.410156 268.039062 268.867188 216.496094 205.285156 216.496094 " fill-opacity="1" fill-rule="nonzero"/></g><g clip-path="url(#53261ec8f0)"><path fill="#eef1f4" d="M 320.4375 185.546875 C 256.855469 185.546875 205.3125 237.09375 205.3125 300.671875 C 205.3125 364.253906 256.855469 415.796875 320.4375 415.796875 C 384.019531 415.796875 435.5625 364.253906 435.5625 300.671875 C 435.5625 237.09375 384.019531 185.546875 320.4375 185.546875 " fill-opacity="1" fill-rule="nonzero"/></g><g clip-path="url(#130f1956df)"><path fill="#eef1f4" d="M 435.589844 196.285156 C 372.007812 196.285156 320.464844 247.828125 320.464844 311.410156 C 320.464844 374.992188 372.007812 426.535156 435.589844 426.535156 C 499.171875 426.535156 550.714844 374.992188 550.714844 311.410156 C 550.714844 247.828125 499.171875 196.285156 435.589844 196.285156 " fill-opacity="1" fill-rule="nonzero"/></g><g clip-path="url(#127e7b3df5)"><path fill="#eef1f4" d="M 571.214844 268.113281 C 520.679688 268.113281 479.714844 309.082031 479.714844 359.613281 C 479.714844 410.148438 520.679688 451.113281 571.214844 451.113281 C 621.75 451.113281 662.714844 410.148438 662.714844 359.613281 C 662.714844 309.082031 621.75 268.113281 571.214844 268.113281 " fill-opacity="1" fill-rule="nonzero"/></g><g clip-path="url(#72be21b9c0)"><path fill="#eef1f4" d="M 697.320312 311.441406 C 654.863281 311.441406 620.445312 345.859375 620.445312 388.316406 C 620.445312 430.773438 654.863281 465.191406 697.320312 465.191406 C 739.777344 465.191406 774.195312 430.773438 774.195312 388.316406 C 774.195312 345.859375 739.777344 311.441406 697.320312 311.441406 " fill-opacity="1" fill-rule="nonzero"/></g><g clip-path="url(#925d10e36b)"><g clip-path="url(#08234cb465)"><path fill="#eef1f4" d="M 1414.316406 261.777344 L 1375.699219 478.515625 L 1211.554688 347.535156 L 1414.316406 261.777344 " fill-opacity="1" fill-rule="nonzero"/></g></g><g clip-path="url(#886bda6ae5)"><path fill="#eef1f4" d="M 1249.011719 348.054688 C 1228.300781 348.054688 1211.511719 364.847656 1211.511719 385.554688 C 1211.511719 406.265625 1228.300781 423.054688 1249.011719 423.054688 C 1269.722656 423.054688 1286.511719 406.265625 1286.511719 385.554688 C 1286.511719 364.847656 1269.722656 348.054688 1249.011719 348.054688 " fill-opacity="1" fill-rule="nonzero"/></g><g clip-path="url(#a605bcf237)"><path fill="#eef1f4" d="M 1369.871094 254.578125 L 1443.371094 254.578125 L 1443.371094 439.816406 L 1369.871094 439.816406 L 1369.871094 254.578125 " fill-opacity="1" fill-rule="nonzero"/></g><g clip-path="url(#e0743d6e8e)"><path fill="#eef1f4" d="M 1413.851562 185.550781 L 1442.726562 286.796875 L 1384.976562 286.796875 L 1413.851562 185.550781 " fill-opacity="1" fill-rule="nonzero"/></g><g clip-path="url(#b14ae54b41)"><path fill="#eef1f4" d="M 1422.359375 184.621094 L 1443.359375 184.621094 L 1443.359375 300.832031 L 1422.359375 300.832031 L 1422.359375 184.621094 " fill-opacity="1" fill-rule="nonzero"/></g></svg>