<svg xmlns="http://www.w3.org/2000/svg" xmlns:xlink="http://www.w3.org/1999/xlink" width="1920" zoomAndPan="magnify" viewBox="0 0 1440 386.999991" height="516" preserveAspectRatio="xMidYMid meet" version="1.0"><defs><clipPath id="70c3077d28"><path d="M 13.121094 42.597656 L 1440 42.597656 L 1440 337 L 13.121094 337 Z M 13.121094 42.597656 " clip-rule="nonzero"/></clipPath><clipPath id="d5e0c68feb"><path d="M 0 155.894531 L 286.148438 155.894531 L 286.148438 387 L 0 387 Z M 0 155.894531 " clip-rule="nonzero"/></clipPath><clipPath id="946b270e49"><path d="M 139.101562 278.316406 L 1440 278.316406 L 1440 387 L 139.101562 387 Z M 139.101562 278.316406 " clip-rule="nonzero"/></clipPath><clipPath id="92750b0dca"><path d="M 87.128906 109.292969 L 317.378906 109.292969 L 317.378906 339.542969 L 87.128906 339.542969 Z M 87.128906 109.292969 " clip-rule="nonzero"/></clipPath><clipPath id="289c392220"><path d="M 202.285156 78.347656 L 432.535156 78.347656 L 432.535156 308.597656 L 202.285156 308.597656 Z M 202.285156 78.347656 " clip-rule="nonzero"/></clipPath><clipPath id="b601f2d7e4"><path d="M 317.4375 89.085938 L 547.6875 89.085938 L 547.6875 319.335938 L 317.4375 319.335938 Z M 317.4375 89.085938 " clip-rule="nonzero"/></clipPath><clipPath id="6458fbdaf3"><path d="M 476.6875 160.914062 L 659.6875 160.914062 L 659.6875 343.914062 L 476.6875 343.914062 Z M 476.6875 160.914062 " clip-rule="nonzero"/></clipPath><clipPath id="fe3ce5178e"><path d="M 617.417969 204.238281 L 771.167969 204.238281 L 771.167969 357.988281 L 617.417969 357.988281 Z M 617.417969 204.238281 " clip-rule="nonzero"/></clipPath><clipPath id="48c22c2b02"><path d="M 1208 154 L 1412 154 L 1412 372 L 1208 372 Z M 1208 154 " clip-rule="nonzero"/></clipPath><clipPath id="5a5effa837"><path d="M 1329.21875 89.085938 L 1493.363281 220.066406 L 1372.671875 371.316406 L 1208.527344 240.332031 Z M 1329.21875 89.085938 " clip-rule="nonzero"/></clipPath><clipPath id="381276e93a"><path d="M 1208.484375 240.855469 L 1283.484375 240.855469 L 1283.484375 315.855469 L 1208.484375 315.855469 Z M 1208.484375 240.855469 " clip-rule="nonzero"/></clipPath><clipPath id="fb6479bb5a"><path d="M 1366.84375 147.371094 L 1440 147.371094 L 1440 332.621094 L 1366.84375 332.621094 Z M 1366.84375 147.371094 " clip-rule="nonzero"/></clipPath><clipPath id="e670d087bb"><path d="M 1381.949219 78.347656 L 1439.699219 78.347656 L 1439.699219 179.597656 L 1381.949219 179.597656 Z M 1381.949219 78.347656 " clip-rule="nonzero"/></clipPath><clipPath id="cad7809e7e"><path d="M 1419.332031 77.398438 L 1440 77.398438 L 1440 193.648438 L 1419.332031 193.648438 Z M 1419.332031 77.398438 " clip-rule="nonzero"/></clipPath></defs><rect x="-144" width="1728" fill="#ffffff" y="-38.699999" height="464.399989" fill-opacity="1"/><rect x="-144" width="1728" fill="#ffffff" y="-38.699999" height="464.399989" fill-opacity="1"/><rect x="-144" width="1728" fill="#fcf3e4" y="-38.699999" height="464.399989" fill-opacity="1"/><g clip-path="url(#70c3077d28)"><path fill="#eef1f4" d="M 13.132812 230.320312 L 15.554688 228.535156 C 59.796875 187.496094 106.738281 158.109375 156.382812 140.375 C 225.101562 116.425781 288.796875 104.820312 347.460938 105.550781 C 396.425781 105.539062 438.152344 112.085938 472.640625 125.191406 C 483.085938 129.242188 497.351562 136.035156 515.429688 145.570312 L 718.683594 253.832031 C 737.453125 264.007812 754.140625 272.183594 768.75 278.367188 C 836.214844 307.328125 895.789062 325.324219 947.464844 332.359375 C 1012.808594 340.0625 1070.34375 337.3125 1120.074219 324.105469 C 1197.335938 300.5 1257.554688 271.625 1300.730469 237.488281 C 1377.882812 178.414062 1428.6875 113.496094 1453.144531 42.734375 L 1440.25 59.71875 C 1412.554688 81.582031 1375.449219 113.671875 1328.933594 155.984375 C 1318.542969 165.425781 1300.003906 178.945312 1273.316406 196.554688 C 1220.558594 230.074219 1159.195312 254.003906 1089.226562 268.335938 C 1015.167969 276.144531 945 269.476562 878.714844 248.332031 C 840.65625 235.917969 807.683594 223.148438 779.804688 210.027344 L 577.023438 105.363281 C 542.75 87.957031 521.125 77.515625 512.152344 74.042969 C 476.625 60.46875 439.007812 52.984375 399.296875 51.589844 C 312.726562 48.929688 230.550781 65.773438 152.761719 102.121094 C 81.835938 135.238281 35.292969 177.96875 13.132812 230.320312 " fill-opacity="1" fill-rule="nonzero"/></g><g clip-path="url(#d5e0c68feb)"><path fill="#eef1f4" d="M 132.398438 155.894531 C 47.484375 155.894531 -21.351562 224.730469 -21.351562 309.644531 C -21.351562 394.558594 47.484375 463.394531 132.398438 463.394531 C 217.3125 463.394531 286.148438 394.558594 286.148438 309.644531 C 286.148438 224.730469 217.3125 155.894531 132.398438 155.894531 " fill-opacity="1" fill-rule="nonzero"/></g><g clip-path="url(#946b270e49)"><path fill="#eef1f4" d="M 139.125 278.316406 L 1440.324219 278.316406 L 1440.324219 387.066406 L 139.125 387.066406 L 139.125 278.316406 " fill-opacity="1" fill-rule="nonzero"/></g><g clip-path="url(#92750b0dca)"><path fill="#eef1f4" d="M 202.253906 109.292969 C 138.671875 109.292969 87.128906 160.835938 87.128906 224.417969 C 87.128906 288 138.671875 339.542969 202.253906 339.542969 C 265.835938 339.542969 317.378906 288 317.378906 224.417969 C 317.378906 160.835938 265.835938 109.292969 202.253906 109.292969 " fill-opacity="1" fill-rule="nonzero"/></g><g clip-path="url(#289c392220)"><path fill="#eef1f4" d="M 317.410156 78.347656 C 253.828125 78.347656 202.285156 129.890625 202.285156 193.472656 C 202.285156 257.054688 253.828125 308.597656 317.410156 308.597656 C 380.992188 308.597656 432.535156 257.054688 432.535156 193.472656 C 432.535156 129.890625 380.992188 78.347656 317.410156 78.347656 " fill-opacity="1" fill-rule="nonzero"/></g><g clip-path="url(#b601f2d7e4)"><path fill="#eef1f4" d="M 432.5625 89.085938 C 368.980469 89.085938 317.4375 140.628906 317.4375 204.210938 C 317.4375 267.792969 368.980469 319.335938 432.5625 319.335938 C 496.144531 319.335938 547.6875 267.792969 547.6875 204.210938 C 547.6875 140.628906 496.144531 89.085938 432.5625 89.085938 " fill-opacity="1" fill-rule="nonzero"/></g><g clip-path="url(#6458fbdaf3)"><path fill="#eef1f4" d="M 568.1875 160.914062 C 517.652344 160.914062 476.6875 201.878906 476.6875 252.414062 C 476.6875 302.945312 517.652344 343.914062 568.1875 343.914062 C 618.71875 343.914062 659.6875 302.945312 659.6875 252.414062 C 659.6875 201.878906 618.71875 160.914062 568.1875 160.914062 " fill-opacity="1" fill-rule="nonzero"/></g><g clip-path="url(#fe3ce5178e)"><path fill="#eef1f4" d="M 694.292969 204.238281 C 651.835938 204.238281 617.417969 238.65625 617.417969 281.113281 C 617.417969 323.570312 651.835938 357.988281 694.292969 357.988281 C 736.75 357.988281 771.167969 323.570312 771.167969 281.113281 C 771.167969 238.65625 736.75 204.238281 694.292969 204.238281 " fill-opacity="1" fill-rule="nonzero"/></g><g clip-path="url(#48c22c2b02)"><g clip-path="url(#5a5effa837)"><path fill="#eef1f4" d="M 1411.289062 154.574219 L 1372.671875 371.316406 L 1208.527344 240.332031 L 1411.289062 154.574219 " fill-opacity="1" fill-rule="nonzero"/></g></g><g clip-path="url(#381276e93a)"><path fill="#eef1f4" d="M 1245.984375 240.855469 C 1225.273438 240.855469 1208.484375 257.644531 1208.484375 278.355469 C 1208.484375 299.066406 1225.273438 315.855469 1245.984375 315.855469 C 1266.691406 315.855469 1283.484375 299.066406 1283.484375 278.355469 C 1283.484375 257.644531 1266.691406 240.855469 1245.984375 240.855469 " fill-opacity="1" fill-rule="nonzero"/></g><g clip-path="url(#fb6479bb5a)"><path fill="#eef1f4" d="M 1366.84375 147.375 L 1440.34375 147.375 L 1440.34375 332.613281 L 1366.84375 332.613281 L 1366.84375 147.375 " fill-opacity="1" fill-rule="nonzero"/></g><g clip-path="url(#e670d087bb)"><path fill="#eef1f4" d="M 1410.824219 78.347656 L 1439.699219 179.59375 L 1381.949219 179.59375 L 1410.824219 78.347656 " fill-opacity="1" fill-rule="nonzero"/></g><g clip-path="url(#cad7809e7e)"><path fill="#eef1f4" d="M 1419.332031 77.417969 L 1440.332031 77.417969 L 1440.332031 193.632812 L 1419.332031 193.632812 L 1419.332031 77.417969 " fill-opacity="1" fill-rule="nonzero"/></g></svg>