<svg xmlns="http://www.w3.org/2000/svg" xmlns:xlink="http://www.w3.org/1999/xlink" width="1920" zoomAndPan="magnify" viewBox="0 0 1440 149.999998" height="200" preserveAspectRatio="xMidYMid meet" version="1.0"><defs><clipPath id="401b70ef41"><path d="M 0 105 L 1439.949219 105 L 1439.949219 150 L 0 150 Z M 0 105 " clip-rule="nonzero"/></clipPath><clipPath id="ee8c56bb2f"><path d="M 0 60 L 1440 60 L 1440 150 L 0 150 Z M 0 60 " clip-rule="nonzero"/></clipPath><clipPath id="338ed0ba01"><path d="M 0.597656 60.902344 L 1439.949219 104.117188 L 1438.597656 149.097656 L -0.753906 105.882812 Z M 0.597656 60.902344 " clip-rule="nonzero"/></clipPath></defs><rect x="-144" width="1728" fill="#ffffff" y="-15" height="179.999997" fill-opacity="1"/><rect x="-144" width="1728" fill="#ffffff" y="-15" height="179.999997" fill-opacity="1"/><rect x="-144" width="1728" fill="#fcf3e4" y="-15" height="179.999997" fill-opacity="1"/><g clip-path="url(#401b70ef41)"><path fill="#eef1f4" d="M -0.0507812 105 L 1439.949219 105 L 1439.949219 150 L -0.0507812 150 L -0.0507812 105 " fill-opacity="1" fill-rule="nonzero"/></g><g clip-path="url(#ee8c56bb2f)"><g clip-path="url(#338ed0ba01)"><path fill="#eef1f4" d="M 0.597656 60.902344 L 1439.949219 104.117188 L 1438.597656 149.097656 L -0.753906 105.882812 L 0.597656 60.902344 " fill-opacity="1" fill-rule="nonzero"/></g></g></svg>